<svg width="41" height="38" xmlns="http://www.w3.org/2000/svg">
 <g>
  <metadata id="svg_16">image/svg+xml</metadata>
  <g id="svg_20">
   <g transform="matrix(0.14266847977498642,0,0,0.14266847977498642,0,0) " id="svg_18">
    <rect x="-33.864959" y="-42.528067" width="355" height="352" id="svg_15" fill="none"/>
   </g>
   <g transform="matrix(0.14266847977498642,0,0,0.14266847977498642,0,0) " id="svg_19">
    <g id="svg_10" transform="matrix(1,0,0,-1,0,960) ">
     <g id="svg_11" transform="translate(1,-1) scale(0.20000000298023224) ">
      <path d="m1065.226093,4143.109094c2.33,14.76 7.57,28.41 14.5,40.71c18,31.92 55.66,51.04 113.51,43.04c-0.63,0.18 -30.73,-15.07 -43.37,-25.4c-10.92,-8.91 -22.11,-20.78 -30.08,-34.89c-7.67,-13.61 -12.42,-29.48 -10.92,-46.96c2.89,-33.62 28.63,-74.12 98.69,-118.88c-97.39,1.41 -131.85,60.5 -140.9,100.77c-68.7,23.93 -134.69,-8.47 -202.03,-41.54c-78.41,-38.55 -158.58,-77.91 -254.22,-46.7l0,-232.28c76.33,20.83 189.25,-14.55 225.59,-106.32c-93.76,100.36 -192.54,76.99 -225.59,65.04l0,-220.02c224.77,-53.21 360.81,-24.48 432.02,35.46c49.68,41.81 67.87,99.43 62.61,154.29c-5.25,55.01 -33.94,106.89 -77.88,137.1c-44.66,30.7 -106.45,38.53 -176.34,2.56c50.11,69.17 150.45,64.95 203.96,28.14c51.58,-35.45 85.8,-94.29 93.97,-156.89c105.07,21.23 116.97,99.34 126.08,159.24c5.4,35.51 10.03,65.84 30.44,83.68c17.16,15 31.93,29.96 44.44,44.74c52.7,62.23 69.67,124.69 64.86,178.91c-4.77,53.47 -30.64,98.93 -63.98,128.11c-6.09,5.24 -12.25,9.93 -18.29,13.83c-63.17,40.86 -64.87,96.11 -66.46,148.44c-1.89,63.12 -3.7,120.99 -176.86,118.21c10.34,-51.86 5.72,-100.14 -32.34,-147.52c-4.75,-5.93 -10.05,-11.79 -15.89,-17.66l2.75,-1.27c7.97,-3.68 17.48,-6.2 24.68,-11.69c34.07,-25.95 35.23,-68.82 17.26,-110.59c4.3,22.45 -28.85,72.06 -62.75,87.75l-15.46,7.25c-21.82,-16.11 -48.59,-32.06 -81.06,-47.9c-65.7,-31.98 -118.61,-25.75 -156.61,-19.47c138.62,46.31 214.06,90.58 250.56,136.03c34.37,42.78 33.56,88.51 19.83,139.23c-6.34,23.39 -21.8,45.59 -43.33,65.69c-41.49,38.74 -105,69.85 -171.31,88.65c-66.02,18.69 -133.98,25.05 -184.94,14.5c-10.94,-2.27 -21.01,-5.29 -29.96,-9.15l0,-279.07c34.99,-8.45 128.76,-19.5 183.36,84.48c6.79,-58.77 -47.34,-114.48 -94.5,-124.31c-34.42,-7.2 -66.55,-4.35 -88.86,-0.18l0,-394.65c84.03,-34.5 159.06,2.36 232.38,38.4c71.59,35.19 141.83,69.68 222.44,49.09" id="svg_14" fill-rule="evenodd" fill="#fff"/>
      <path d="m595.686093,3513.449094c-4.32,0.34 -8.62,0.74 -12.92,1.16c-269.65,27.6 -480,254.73 -480,530.85c0,205.22 116.2,383.37 286.59,472.65c-44.83,24.98 -75.4,74.8 -75.4,132.19c0,12.56 1.47,24.76 4.24,36.42c-121.41,-73.09 -218.33,-187.03 -268.91,-325.24c-24.77,-67.68 -38.28,-140.75 -38.28,-216.98c0,-328.34 250.75,-598.25 571.76,-629.89c4.29,-0.43 8.6,-0.82 12.92,-1.16" id="svg_13" fill-rule="evenodd" fill="#fff"/>
      <path d="m454.826093,4778.499094c66.82,0 120.99,-57.39 120.99,-128.2c0,-70.82 -54.17,-128.21 -120.99,-128.21c-66.83,0 -121,57.39 -121,128.21c0,70.81 54.17,128.2 121,128.2" id="svg_12" fill-rule="evenodd" fill="#fff"/>
     </g>
    </g>
   </g>
  </g>
 </g>
</svg>
